<svg xmlns="http://www.w3.org/2000/svg" viewBox="0 0 100 100">
  <line x1="50" y1="50" x2="50.0" y2="8.0" stroke="#b4c8f0" stroke-width="2.5" stroke-opacity="0.7" stroke-linecap="round"/>
  <line x1="50" y1="50" x2="82.8" y2="23.8" stroke="#ef4444" stroke-width="2.5" stroke-opacity="0.7" stroke-linecap="round"/>
  <line x1="50" y1="50" x2="90.9" y2="59.3" stroke="#475569" stroke-width="2.5" stroke-opacity="0.7" stroke-linecap="round"/>
  <line x1="50" y1="50" x2="68.2" y2="87.8" stroke="#eab308" stroke-width="2.5" stroke-opacity="0.7" stroke-linecap="round"/>
  <line x1="50" y1="50" x2="31.8" y2="87.8" stroke="#22c55e" stroke-width="2.5" stroke-opacity="0.7" stroke-linecap="round"/>
  <line x1="50" y1="50" x2="9.1" y2="59.3" stroke="#94a3b8" stroke-width="2.5" stroke-opacity="0.7" stroke-linecap="round"/>
  <line x1="50" y1="50" x2="17.2" y2="23.8" stroke="#3b82f6" stroke-width="2.5" stroke-opacity="0.7" stroke-linecap="round"/>
  <circle cx="50.0" cy="8.0" r="13.5" fill="#b4c8f0" fill-opacity="0.2"/>
  <circle cx="50.0" cy="8.0" r="9" fill="#b4c8f0" fill-opacity="0.9"/>
  <circle cx="82.8" cy="23.8" r="13.5" fill="#ef4444" fill-opacity="0.2"/>
  <circle cx="82.8" cy="23.8" r="9" fill="#ef4444" fill-opacity="0.9"/>
  <circle cx="90.9" cy="59.3" r="13.5" fill="#475569" fill-opacity="0.2"/>
  <circle cx="90.9" cy="59.3" r="9" fill="#475569" fill-opacity="0.9"/>
  <circle cx="68.2" cy="87.8" r="13.5" fill="#eab308" fill-opacity="0.2"/>
  <circle cx="68.2" cy="87.8" r="9" fill="#eab308" fill-opacity="0.9"/>
  <circle cx="31.8" cy="87.8" r="13.5" fill="#22c55e" fill-opacity="0.2"/>
  <circle cx="31.8" cy="87.8" r="9" fill="#22c55e" fill-opacity="0.9"/>
  <circle cx="9.1" cy="59.3" r="13.5" fill="#94a3b8" fill-opacity="0.2"/>
  <circle cx="9.1" cy="59.3" r="9" fill="#94a3b8" fill-opacity="0.9"/>
  <circle cx="17.2" cy="23.8" r="13.5" fill="#3b82f6" fill-opacity="0.2"/>
  <circle cx="17.2" cy="23.8" r="9" fill="#3b82f6" fill-opacity="0.9"/>
  <circle cx="50" cy="50" r="30" fill="#3b82f6" fill-opacity="0.12"/>
  <circle cx="50" cy="50" r="22" fill="#3b82f6" fill-opacity="0.2"/>
  <circle cx="50" cy="50" r="16" fill="#3b82f6" fill-opacity="0.3"/>
  <circle cx="50" cy="50" r="12" fill="white"/>
</svg>